<svg xmlns="http://www.w3.org/2000/svg" viewBox="0 0 22.68 22.68"><g id="Layer_2" data-name="Layer 2"><g id="Layer_1-2" data-name="Layer 1"><path d="M13.49,11.32a2.1,2.1,0,1,1-2.1-2.09A2.1,2.1,0,0,1,13.49,11.32Z" style="fill:#521943"/><path d="M14,5.93H8.68A2.74,2.74,0,0,0,5.94,8.67V14a2.74,2.74,0,0,0,2.74,2.74H14A2.74,2.74,0,0,0,16.73,14V8.67A2.74,2.74,0,0,0,14,5.93Zm-2.6,8.67a3.28,3.28,0,1,1,3.28-3.28A3.28,3.28,0,0,1,11.39,14.6Zm3.47-6a.78.78,0,1,1,.78-.78A.78.78,0,0,1,14.86,8.61Z" style="fill:#521943"/><path d="M11.34,0A11.34,11.34,0,1,0,22.68,11.34,11.34,11.34,0,0,0,11.34,0ZM18,14a4,4,0,0,1-4,4H8.68a4,4,0,0,1-4-4V8.67a4,4,0,0,1,4-4H14a4,4,0,0,1,4,4Z" style="fill:#521943"/></g></g></svg>