<svg xmlns="http://www.w3.org/2000/svg" viewBox="0 0 22.68 22.68"><g id="Layer_2" data-name="Layer 2"><g id="Layer_1-2" data-name="Layer 1"><path d="M11.34,0A11.34,11.34,0,1,0,22.68,11.34,11.34,11.34,0,0,0,11.34,0Zm6.32,7.47a.36.36,0,0,1-.07.19,4.84,4.84,0,0,1-1,1c-.05,0-.15.09-.15.17a7.62,7.62,0,0,1-2,5.56,7.5,7.5,0,0,1-7.26,1.7,7.18,7.18,0,0,1-1.41-.57l-.43-.25s-.07-.06,0-.08.06,0,.17,0A5,5,0,0,0,7.57,15,3.21,3.21,0,0,0,9,14.22v0l-.27,0a2.71,2.71,0,0,1-2-1.69c0-.07,0-.11.07-.09a3.08,3.08,0,0,0,1,0,1.7,1.7,0,0,1-.32-.1,2.61,2.61,0,0,1-1.61-2.09,1.42,1.42,0,0,1,0-.29c0-.07,0-.08.1,0a2.48,2.48,0,0,0,1,.27,3.82,3.82,0,0,1-.32-.27,2.59,2.59,0,0,1-.43-3.05c0-.07.08-.07.13,0a8,8,0,0,0,5.1,2.6s.06,0,0-.06a2.76,2.76,0,0,1,0-1.07,2.59,2.59,0,0,1,.5-1,2.77,2.77,0,0,1,1.89-1,2.41,2.41,0,0,1,1.1.18,2.33,2.33,0,0,1,.72.44.53.53,0,0,1,.13.13.1.1,0,0,0,.1,0,6.55,6.55,0,0,0,1.49-.57.06.06,0,0,1,.06,0s0,0,0,.07a2.46,2.46,0,0,1-.42.76c-.12.14-.41.51-.61.54a5.54,5.54,0,0,0,1.25-.35s.05,0,.05,0Z" style="fill:#521943"/></g></g></svg>